<svg xmlns="http://www.w3.org/2000/svg" viewBox="0 0 484.43 193.06"><defs><style>.cls-1{fill:#075e54;}.cls-2{fill:#25d366;}.cls-3{fill:#34b7f1;}</style></defs><title>Asset 1</title><g id="Layer_2" data-name="Layer 2"><g id="Layer_1-2" data-name="Layer 1"><path class="cls-1" d="M189.91,14.7H137.58a2,2,0,0,0-1.52.7l-30,35a2,2,0,0,1-3.31-.42L86,15.81a2,2,0,0,0-1.79-1.12H34a2,2,0,0,0-1.77,2.93L68.48,86.85a2,2,0,0,1-.29,2.28L.53,163.35A2,2,0,0,0,2,166.7H57.78a2,2,0,0,0,1.53-.71l30.42-36a2,2,0,0,1,3.33.42l17,35.18a2,2,0,0,0,1.8,1.13h50.76a2,2,0,0,0,1.76-3L125.83,92.37a2,2,0,0,1,.28-2.29l65.29-72A2,2,0,0,0,189.91,14.7Z"/><path class="cls-1" d="M200.86,58.06a32.77,32.77,0,0,0-.76,6.88q0,10.31,6.81,16t18.65,5.67q10.42,0,17.47-3.37a2,2,0,0,0,1.12-2.15l-2.65-15.46A2,2,0,0,0,238.92,64a13.08,13.08,0,0,1-4.19.78q-5.35,0-5.35-4.84a15.35,15.35,0,0,1,.26-2l3.12-15.83a2,2,0,0,1,2-1.61h11a2,2,0,0,0,2-1.61l3.4-17a2,2,0,0,0-2-2.39h-9.37a2,2,0,0,1-2-2.4l3-14.69a2,2,0,0,0-2-2.4H214.08a2,2,0,0,0-2,1.6l-3.3,16.27a2,2,0,0,1-2,1.6h-6.27a2,2,0,0,0-2,1.61l-3.4,17a2,2,0,0,0,2,2.39H202a2,2,0,0,1,2,2.4Z"/><path class="cls-1" d="M276.59,85.3a1.83,1.83,0,0,0,1.8-1.47l6.2-30.74q1.53-7.26,5.79-10.5T302,39.34a38.67,38.67,0,0,1,4.6.28,1.82,1.82,0,0,0,2-1.46l4.31-21.53A1.84,1.84,0,0,0,311,14.43q-11.08.45-18.32,5.27a1.83,1.83,0,0,1-2.82-1.86h0a1.83,1.83,0,0,0-1.8-2.18H264.69a1.83,1.83,0,0,0-1.8,1.47l-13.15,66a1.83,1.83,0,0,0,1.8,2.19Z"/><path class="cls-1" d="M314.6,71.62a28.91,28.91,0,0,0,10.76,11.14,27.14,27.14,0,0,0,13.75,3.82,26,26,0,0,0,15.46-4.82,1.6,1.6,0,0,1,2.49,1.63h0a1.61,1.61,0,0,0,1.57,1.92h23.84A1.61,1.61,0,0,0,384.06,84L397.3,17.58a1.61,1.61,0,0,0-1.57-1.92H370.21a1.61,1.61,0,0,0-1.57,1.28l-.58,2.81a1.61,1.61,0,0,1-2.74.77q-6-6.13-17.8-6.13a34.73,34.73,0,0,0-18.46,5.22A37.83,37.83,0,0,0,315.49,34a41.63,41.63,0,0,0-5,20.37A34.48,34.48,0,0,0,314.6,71.62Zm28.52-30.24a11.16,11.16,0,0,1,9.1-4.33,9.76,9.76,0,0,1,7.58,3,11.34,11.34,0,0,1,2.74,8q0,7.26-3.5,11.59a11.16,11.16,0,0,1-9.1,4.33,9.75,9.75,0,0,1-7.58-3,11.32,11.32,0,0,1-2.74-8Q339.62,45.71,343.12,41.38Z"/><path class="cls-1" d="M240.57,99.07l-.7,3.63a2,2,0,0,1-3.54.9q-5.74-7.42-18.74-7.42a37.3,37.3,0,0,0-32.47,18.4,36.2,36.2,0,0,0-5,18.65,29.9,29.9,0,0,0,4.2,15.92,28.29,28.29,0,0,0,11.08,10.5,31.17,31.17,0,0,0,14.77,3.63,24.85,24.85,0,0,0,17.57-6.62l-.38,1.78q-1.27,6.62-5.28,9.93t-12,3.31a43.17,43.17,0,0,1-12.41-1.85,34.3,34.3,0,0,1-8.72-3.87,2,2,0,0,0-2.77.62l-10.06,16.13a2,2,0,0,0,.7,2.8q12.76,7.56,32.75,7.56,19.48,0,31.51-9.61t16.11-30.37l10.6-53.25a2,2,0,0,0-2-2.39H242.53A2,2,0,0,0,240.57,99.07Zm-12.23,38.1a11.78,11.78,0,0,1-9,3.56,10.67,10.67,0,0,1-7.45-2.48,8.28,8.28,0,0,1-2.74-6.43,13,13,0,0,1,3.44-9.42,12,12,0,0,1,9-3.57,10.44,10.44,0,0,1,7.38,2.48,8.38,8.38,0,0,1,2.67,6.43A13.15,13.15,0,0,1,228.34,137.17Z"/><path class="cls-1" d="M277.08,99.05,264,164.7a2,2,0,0,0,2,2.39h24.57a2,2,0,0,0,2-1.61l13.08-65.64a2,2,0,0,0-2-2.39H279A2,2,0,0,0,277.08,99.05Z"/><path class="cls-1" d="M338.53,116.8a16.27,16.27,0,0,1,6.68-1,41.24,41.24,0,0,1,19.35,4.45,1.59,1.59,0,0,0,2.15-.71l8.42-16.62a1.61,1.61,0,0,0-.83-2.22,55.17,55.17,0,0,0-10.94-3.18,79,79,0,0,0-14.71-1.34q-16.38,0-27.07,6a23.6,23.6,0,0,0-12.13,21.17q.22,6.52,3.93,10.29a21.47,21.47,0,0,0,9.17,5.6A91.61,91.61,0,0,0,335.28,142a46.09,46.09,0,0,1,7.07,1.34q2.23.7,2.23,2.1,0,3.31-8.53,3.31a51.66,51.66,0,0,1-12.67-1.66,42.21,42.21,0,0,1-10.11-3.89,1.59,1.59,0,0,0-2.18.69l-8.46,16.7a1.61,1.61,0,0,0,.7,2.16A48.39,48.39,0,0,0,315,166.58a83.83,83.83,0,0,0,17.44,1.78,62.81,62.81,0,0,0,19.8-2.93,31,31,0,0,0,14-8.85,21.06,21.06,0,0,0,5.16-14.32q0-7-3.88-11a21.1,21.1,0,0,0-9-5.6A90.35,90.35,0,0,0,346,122.91a59.76,59.76,0,0,1-7.38-1.59q-2.17-.7-2.16-2.1T338.53,116.8Z"/><path class="cls-1" d="M422.51,81.79H397.81a2,2,0,0,0-2,1.6l-3.3,16.27a2,2,0,0,1-2,1.6h-6.27a2,2,0,0,0-2,1.61l-3.4,17a2,2,0,0,0,2,2.39h4.79a2,2,0,0,1,2,2.4l-3.08,15.17a32.85,32.85,0,0,0-.76,6.88q0,10.31,6.81,16t18.65,5.67q10.42,0,17.47-3.37a2,2,0,0,0,1.12-2.15l-2.65-15.46a2,2,0,0,0-2.59-1.56,13.08,13.08,0,0,1-4.19.78q-5.35,0-5.35-4.84a15.29,15.29,0,0,1,.25-2l3.12-15.83a2,2,0,0,1,2-1.61h11a2,2,0,0,0,2-1.61l3.4-17a2,2,0,0,0-2-2.39h-9.37a2,2,0,0,1-2-2.4l3-14.69A2,2,0,0,0,422.51,81.79Z"/><path class="cls-2" d="M466.71,47.18l5.74-29.1a2,2,0,0,0-2-2.39H408.36a2,2,0,0,0-2,1.61L402,39.53h0L399.3,53.32a2,2,0,0,0,3.33,1.85l6.26-5.84a2,2,0,0,1,1.36-.54h54.5A2,2,0,0,0,466.71,47.18Z"/><path class="cls-3" d="M482.43,55.53H436.51a2,2,0,0,0-2,1.61L432,69.94a2,2,0,0,0,2,2.39h36a2,2,0,0,1,1.56.75l5.21,6.49a2,2,0,0,0,3.52-.87l1.26-6.38h0l2.84-14.41A2,2,0,0,0,482.43,55.53Z"/></g></g></svg>